<svg width="25" height="25" viewBox="0 0 25 25" fill="none" xmlns="http://www.w3.org/2000/svg">
<path d="M12.5 20.8333L18.0555 15.2778L16.1111 13.3333L13.8889 15.5556V9.72223H11.1111V15.5556L8.88888 13.3333L6.94444 15.2778L12.5 20.8333ZM2.77778 6.94445V22.2222H22.2222V6.94445H2.77778ZM2.77778 25C2.01389 25 1.36018 24.7282 0.816666 24.1847C0.273148 23.6412 0.000925925 22.987 0 22.2222V4.89584C0 4.57176 0.0523147 4.25926 0.156944 3.95834C0.261574 3.65741 0.417592 3.37964 0.625 3.12501L2.36111 1.00695C2.61574 0.682877 2.93379 0.433804 3.31528 0.25973C3.69676 0.0856555 4.09629 -0.000918577 4.51389 7.34861e-06H20.4861C20.9028 7.34861e-06 21.3023 0.0870443 21.6847 0.261118C22.0671 0.435192 22.3852 0.683803 22.6389 1.00695L24.375 3.12501C24.5833 3.37964 24.7398 3.65741 24.8444 3.95834C24.9491 4.25926 25.0009 4.57176 25 4.89584V22.2222C25 22.9861 24.7282 23.6403 24.1847 24.1847C23.6412 24.7292 22.987 25.0009 22.2222 25H2.77778ZM3.33333 4.16667H21.6667L20.4861 2.77778H4.51389L3.33333 4.16667Z" fill="black"/>
</svg>
